<svg viewBox="4.83 115.092 603.499 407.592">
<g>
	<path d="M592.416,232.596c-11.628-29.376-31.824-55.08-55.692-72.828c-0.611-0.612-1.224-0.612-2.447-0.612
		c-2.448-1.836-4.896-3.06-7.345-4.896c-9.792-4.896-21.42-7.956-36.107-8.568c-1.225,0-3.061,0-4.284,0
		c-10.404,0-21.42,1.224-33.66,3.672c-13.464,3.06-26.315,6.732-37.943,12.24c-28.765,12.852-52.021,33.66-73.44,54.468
		c-1.836,1.836-3.672,3.672-5.508,5.508c0-0.612-0.612-1.224-0.612-1.836l-0.612-4.284c-2.447-4.896-4.283-10.404-6.12-15.912
		c-0.611-1.836-1.224-3.672-1.836-5.508c-4.283-12.24-9.792-25.092-19.584-35.496c-5.508-5.508-11.016-11.016-17.748-15.912
		c-3.672-3.06-12.24-6.732-18.972-7.956c-4.284-9.792-11.628-15.912-20.808-18.36c-3.06-0.612-6.732-1.224-10.404-1.224
		c-11.016,0-20.808,4.896-27.54,8.568c-4.284-0.612-8.568-1.224-12.852-1.836c-7.956-1.224-15.912-1.836-24.48-1.836
		c-1.836,0-3.672,0-4.896,0c-31.824,1.836-60.588,12.24-83.232,30.6c-18.36,14.688-34.884,36.108-48.348,62.424
		c-11.016,22.032-19.584,47.124-25.704,74.052c-3.672,16.524-6.732,31.212-7.344,47.124s3.06,31.824,9.18,47.124
		c5.508,12.852,12.24,23.868,21.42,33.048c7.956,8.567,17.748,15.911,31.824,23.256c7.344,4.284,14.688,9.792,22.032,14.688
		c9.792,7.345,20.196,14.688,32.436,20.196c9.792,4.284,20.196,6.12,32.436,6.732c3.06,0,6.732,0,10.404-0.612
		c3.06,0,6.12-0.612,9.18-0.612c5.508,0,9.792,0.612,12.852,1.836c1.224,1.225,3.06,2.448,4.284,3.672
		c8.568,7.345,19.584,14.076,32.436,18.973c14.688,6.12,30.6,10.403,47.124,14.076c18.36,3.672,36.72,6.119,54.468,6.119
		c14.688,0,29.376-1.224,43.452-4.283c15.3-3.061,28.764-7.956,40.393-14.688c11.016-6.12,21.42-14.688,31.212-25.092
		c3.672-4.284,7.344-8.568,11.016-13.464c54.468-6.12,108.937-39.78,135.864-83.844c13.464-22.032,20.808-47.736,21.42-73.44
		C607.716,284.004,602.82,257.688,592.416,232.596z M167.688,470.052c-3.06,0-6.12,0-9.18,0c-4.284,0-7.956,0-12.24-0.611
		c-11.628-0.612-24.48-5.509-37.944-14.688c-4.896-3.06-9.792-6.732-14.076-10.404c-6.12-4.896-12.852-9.792-20.196-14.076
		C62.424,424.152,52.02,417.42,42.84,408.24c-19.584-19.584-29.988-48.96-28.152-78.336c0.612-15.912,4.284-31.212,7.956-45.9
		c3.06-12.24,6.732-24.48,11.016-36.108c9.792-27.54,22.644-50.796,37.944-69.156c18.36-22.032,41.616-37.332,66.708-44.064
		c11.628-3.06,23.868-4.896,36.108-4.896c3.06,0,6.732,0,9.792,0.612c5.508,0.612,11.628,1.224,17.136,1.836
		c-1.224,1.224-1.224,3.06-0.612,4.284c0.612,1.836,2.448,3.06,4.284,3.06c1.224,0,2.448-0.612,3.06-1.224
		c9.18-8.568,20.808-13.464,30.6-13.464c2.448,0,4.896,0,7.344,0.612c17.748,4.284,18.972,25.704,18.36,32.436
		c0,1.224,0.612,2.448,1.224,3.06c0.612,0.612,1.836,1.224,3.06,1.224c2.448,0,4.896-1.836,4.896-4.284c0-4.284,0-8.568-0.612-12.24
		c3.06,1.224,6.12,2.448,7.956,3.06c4.284,2.448,7.956,6.12,13.464,11.016c3.06,3.06,6.732,6.732,10.404,11.016
		c4.896,6.12,7.957,14.076,10.404,19.584c1.836,4.284,3.061,8.568,4.896,12.24c1.224,3.06,1.836,6.12,3.06,8.568
		c1.836,4.896,3.672,9.792,6.12,14.076c0.612,1.836,1.225,3.06,2.448,4.896c5.508,12.852,11.016,26.316,14.076,41.004
		c2.448,13.464,1.836,25.704-2.448,36.72c-11.628,2.448-23.868,4.896-38.556,6.12c-3.06,0.612-6.12,0.612-9.18,1.224
		c-7.956,0.612-15.912,1.836-23.868,3.06c-9.792,1.224-19.584,3.06-28.764,4.896l-7.956,1.836
		c-8.568,1.836-17.136,3.672-25.704,6.12c-1.836,0.612-3.672,1.224-6.12,1.224c-3.06,0.612-6.12,1.224-9.18,2.448
		c-3.06,1.224-5.508,2.448-8.568,2.448c-1.224,0-1.836,0-3.06,0.612c-2.448,0-4.284,0.612-6.732,1.224
		c-1.224,0.612-1.836,1.224-2.448,1.836c-8.568,12.852-9.792,27.54-11.016,41.616v2.448c0,3.06-0.612,6.12-1.224,9.18
		c-0.612,3.672-0.612,7.956-1.224,11.628c-0.612,6.12,0,12.24,0.612,18.36c1.836,16.523,7.344,32.436,16.524,45.288
		c-1.224,0-2.448,0-3.672,0C171.36,470.052,169.524,470.664,167.688,470.052z M388.62,304.2c6.12-2.448,12.24-4.284,18.972-5.508
		c6.12-1.224,12.853-1.224,18.973-1.836h3.06c7.344-0.612,15.3-0.612,23.256-2.448c1.224,0,3.061-0.612,4.896-0.612
		c3.06,0,5.508-0.612,8.567-1.224c0.612,5.508,1.225,10.404,2.448,15.912c1.224,8.568,3.06,17.748,2.448,26.316
		c-0.612,14.688-3.672,29.988-10.404,50.184c-4.284,12.852-9.792,28.152-18.36,41.004c-0.611,0.611-1.224,1.836-1.836,2.447
		c-6.119-9.18-13.464-17.136-19.584-24.479l-1.836-1.836c-3.672-3.672-7.344-7.956-10.403-12.24
		c-0.612-0.612-1.225-1.224-1.836-2.448c-2.448-3.06-5.509-6.732-8.568-9.792c-6.12-5.508-12.24-10.404-18.972-15.3
		c-1.836-1.224-3.673-2.448-5.509-4.284c-7.344-5.508-14.688-11.016-19.584-18.972c0.612-1.224,1.225-1.836,1.225-3.06
		c0-0.612,0.611-1.224,0.611-1.224c9.792,0.612,20.809,1.836,32.437,4.284c4.896,1.224,10.404,2.448,15.3,3.672
		c4.284,1.224,8.568,2.448,12.852,3.06l4.284,1.224c6.12,1.224,12.24,3.06,18.36,4.896c3.06,0.612,6.732,1.836,9.792,3.672
		c1.836,0.612,3.672,1.836,4.284,3.06c0.611,1.224,2.447,2.448,3.672,2.448c1.836,0,3.06-1.224,4.284-2.448
		c0.611-1.224,0.611-3.06,0-4.284c-3.061-5.508-10.404-7.956-15.912-9.792l-1.225-0.612c-6.731-2.448-14.075-4.284-21.42-5.508
		l-3.06-0.612c-4.284-1.224-9.18-2.448-13.464-3.672c-4.896-1.224-9.792-2.448-15.3-3.672c-12.24-3.06-23.257-4.284-33.66-4.896
		c0-2.448-0.612-4.896-2.448-6.732c-0.612-1.224-1.836-1.836-3.06-1.836c-1.836,0-3.673,1.224-4.284,3.06
		c-0.612,1.836-0.612,3.672,0.611,4.896c0.612,0.612,0.612,1.836-1.836,7.956c-1.836,4.896-4.896,8.568-8.567,12.24
		c-1.836,1.836-4.284,2.448-7.345,2.448c-8.567,0-20.195-6.732-22.031-7.956l0,0c-0.612,0-0.612-0.612-0.612-1.224
		c0-0.612-0.612-1.224-0.612-1.836c0-0.612,0-0.612-0.611-1.224V334.8v-0.612l0,0c0-0.612,0-1.224,0-1.836
		c0-1.224,0.611-2.448,0.611-3.672c0-0.612,0.612-1.836,0.612-2.448c0.612-0.612,0.612-1.836,0-2.448
		c6.732-0.612,14.076-1.836,20.808-3.06c18.36-3.06,36.108-8.568,50.796-13.464C383.112,306.036,386.172,304.812,388.62,304.2z
		 M367.812,481.068c-5.508-11.628-9.18-24.48-9.792-40.393c-0.611-5.508-0.611-11.016-0.611-16.523v-3.672c0-0.612,0-1.837,0-2.448
		c0-4.896,0-9.792-1.225-14.688c-1.836-7.956-4.896-15.3-7.956-23.256c-0.611-1.836-1.224-3.672-2.447-5.508
		c-1.836-4.284-3.061-8.568-4.284-12.24v-0.612c-0.612-1.224-1.225-3.672-1.225-4.896c0.612-0.612,1.837-1.224,2.448-1.224
		c2.448-1.836,4.284-3.672,6.12-6.12c7.344,9.18,16.524,15.912,25.704,22.644c5.508,3.672,11.016,7.956,15.912,12.24
		c3.672,3.672,7.344,7.344,9.792,11.016c3.672,4.284,7.956,9.18,11.628,13.463l1.836,1.837c7.344,8.567,15.3,17.136,21.42,26.928
		c-6.12,7.344-12.852,14.076-20.808,20.808c-14.688,12.24-29.988,20.809-45.288,26.316
		C368.424,482.292,367.812,481.68,367.812,481.068z M298.044,331.74c-6.732,2.448-13.464,4.896-20.196,7.344
		c-10.404,3.672-21.42,7.344-31.824,11.628c-15.912,6.732-33.66,14.688-45.9,28.764c0-0.612,0-0.612,0-1.224l-0.612-1.836
		c-0.612-3.06-1.224-6.732-2.448-10.404c-0.612-1.836-1.224-3.672-1.836-4.896c0-0.612-0.612-1.224-0.612-1.224
		c0-0.612,0-0.612-0.612-1.224c0-0.612-0.612-1.224-0.612-1.836c0,0,0-0.612-0.612-0.612c-0.612-0.612-0.612-1.836-1.224-3.06
		c-0.612-1.836-1.224-3.06-1.836-4.284c-0.612-1.224-1.224-2.448-2.448-3.06c1.836-0.612,4.284-0.612,6.12-1.224
		c5.508-1.224,10.404-1.836,14.076-3.06c6.732-2.448,13.464-4.284,20.808-6.12c17.136-3.672,33.048-6.732,48.96-9.18
		c6.12-0.612,12.24-1.224,18.36-1.836c1.224,0,1.836,0,3.06-0.612C298.656,326.844,298.044,329.292,298.044,331.74z
		 M203.796,388.044c5.508-7.344,13.464-12.852,18.972-15.912c7.344-4.284,15.912-8.568,27.54-13.464
		c9.792-3.672,20.196-7.344,29.988-11.016c6.12-1.836,12.24-4.284,18.972-6.732c0.612,0.612,0.612,1.224,1.224,1.836
		c0.612,0.612,0.612,1.224,1.224,1.836c0.612,2.448,2.448,3.672,4.284,4.284c0,0,0.612,0,0.612,0.612h0.611
		c3.061,1.836,6.12,3.672,9.181,4.896c-1.225,0.612-1.836,1.224-2.448,2.448c-6.12,12.24-13.464,23.868-20.808,35.496
		c-12.24,19.584-25.092,39.78-31.824,62.424c-4.896-4.284-9.18-8.568-13.464-12.852c-3.06-3.061-6.12-6.12-9.18-9.181
		c-9.792-9.18-18.972-18.359-27.54-28.764c-3.672-4.896-6.12-8.568-7.344-12.852c0-0.612-0.612-1.224-0.612-1.836
		C202.572,389.268,203.184,389.268,203.796,388.044z M300.492,397.224c7.344-11.627,14.688-23.256,21.42-36.107
		c0.612-1.224,0.612-3.06,0-4.284c3.06,1.224,6.12,1.224,9.18,1.224c0,1.224,0.612,3.06,1.225,4.284
		c1.224,4.284,2.447,8.568,4.283,12.24v0.612c0.612,1.836,1.836,4.284,2.448,6.12c3.061,7.344,6.12,14.688,7.956,22.032
		c1.224,4.284,1.224,8.568,1.224,13.464c0,1.225,0,1.836,0,3.061v3.672c0,6.12,0,12.24,0.612,18.36
		c1.225,16.523,4.896,31.212,11.017,43.451c0,0,0,0.612,0.611,0.612c-7.956,1.836-15.3,3.06-23.256,3.672c-0.612,0-1.224,0-2.448,0
		c-22.031,0-44.676-9.18-66.708-26.928C274.176,438.84,287.64,417.42,300.492,397.224z M489.6,339.084
		c6.732,1.224,14.076,2.448,20.809,6.12c-3.672,4.896-7.344,9.18-10.404,13.464c-3.06,3.672-6.12,7.344-9.18,11.628
		C491.436,360.504,490.824,350.1,489.6,339.084z M356.796,230.76c17.748-15.912,36.108-31.824,56.304-44.064
		c4.896-3.06,9.792-5.508,14.688-7.344c4.896,3.672,7.344,10.404,8.568,14.688c2.447,7.956,3.06,15.912,3.06,23.256
		c0.612,6.732,0,14.076,0,20.808c0,8.568,0,17.136,0.612,25.704c0,2.448,2.447,4.284,4.896,4.284c1.225,0,2.448-0.612,3.672-1.224
		c0.612-0.612,1.225-1.836,1.225-3.06c-0.612-8.568-0.612-17.136-0.612-25.704c0-7.344,0-15.3,0-23.256
		c-0.612-14.076-2.448-29.988-11.628-39.78c3.672-1.224,7.344-2.448,11.628-3.06c11.628-2.448,23.868-3.06,36.108-2.448
		c12.852,1.224,24.479,4.284,34.271,9.18c9.18,4.896,15.912,12.24,20.809,22.032c4.896,9.18,7.955,20.808,9.18,34.272
		c1.224,12.24,1.224,24.48-0.612,36.108c-3.672,21.42-14.688,40.392-25.704,56.304c-1.836,3.06-4.283,6.12-6.731,9.792
		c-8.568-4.896-18.973-6.732-28.152-7.956c-2.448-14.076-6.731-28.764-12.852-45.288c-0.612-1.836-2.448-3.06-4.284-3.06h-0.612
		c-1.224,0-2.448,0-3.672,1.224s-4.284,1.224-7.344,1.836c-1.836,0-3.672,0-5.508,0.612c-5.509,1.224-10.404,1.836-16.524,1.836
		c-3.06,0-5.508,0.612-8.568,0.612c-8.567,0.612-17.136,0.612-25.703,3.06c-4.896,1.224-10.404,3.06-14.688,4.896
		c-2.448,0.612-4.284,1.836-6.732,2.448c-9.18,3.06-17.136,5.508-24.479,7.956c-0.612,0-1.836,0.612-2.448,0.612
		c3.061-11.628,3.061-23.256,1.225-34.884c3.06,1.224,6.119,3.672,9.18,5.508c5.508,3.672,11.628,7.344,18.36,8.568h0.611l0,0
		c2.448,0,4.284-1.836,4.896-4.284c0-2.448-1.225-4.284-3.672-4.896c-6.12-1.224-11.017-4.284-16.524-7.956
		c-3.672-2.448-7.956-4.896-12.852-6.732c-0.612,0-1.225-0.612-1.837-0.612c-0.611,0-0.611,0-1.224,0
		c-1.836-6.732-4.284-13.464-6.731-20.196C349.452,237.492,353.124,233.82,356.796,230.76z M548.964,186.696
		c8.568,10.404,17.748,23.868,20.808,37.944c1.225,7.344,0.612,15.3-0.611,22.644c-0.612,7.344-2.448,15.3-4.896,24.48
		c-3.672,12.852-8.567,25.092-13.464,36.72l-3.06,7.344c-4.896,12.24-10.404,25.092-18.36,36.72
		c-7.344,10.404-17.748,18.36-27.54,26.316c-4.284,3.672-8.568,6.732-12.852,10.404l0,0c6.12-8.568,12.852-17.136,18.972-25.092
		c12.24-15.3,24.48-31.824,34.884-48.96c7.956-13.464,12.853-25.704,14.688-37.332c2.448-11.016,3.06-23.256,1.836-36.72
		c-1.224-20.808-7.344-48.348-26.316-64.26c-13.464-11.016-33.048-16.524-56.916-16.524c-4.284,0-9.18,0-13.464,0.612
		c-11.016,1.224-20.808,3.06-29.988,6.12c-11.016,3.672-22.031,9.792-34.884,18.36c-16.523,11.016-31.824,25.092-47.124,37.944
		c-3.06,2.448-6.12,5.508-9.18,7.956c0-0.612-0.612-1.224-0.612-1.836c20.809-20.808,42.84-41.616,70.38-56.304
		c22.645-12.24,48.96-18.972,74.664-18.972c0.612,0,1.225,0,1.836,0c12.853,0,23.868,2.448,33.048,6.12
		c11.017,4.896,18.973,14.688,26.929,24.48L548.964,186.696z M170.136,394.164c0-1.836,0.612-3.672,0.612-5.508
		c0-1.836,0.612-4.284,0.612-6.12c0-2.448,0.612-4.284,0.612-6.732c0.612-4.896,1.224-9.18,1.836-12.24
		c1.224-4.284,2.448-7.956,3.672-11.628c0-0.612,0.612-0.612,0.612-1.224l1.224,1.224c0.612,0.612,0.612,0.612,1.224,1.224
		l0.612,0.612l0.612,0.612c2.448,1.836,3.672,4.896,4.284,9.792v0.612v0.612c1.224,4.284,2.448,9.18,3.06,13.464
		c0.612,2.448,1.224,4.896,1.224,7.344c1.836,7.344,3.672,12.852,7.344,17.136c3.672,5.508,8.568,11.017,14.688,17.748
		c6.732,6.732,13.464,13.464,20.196,20.196c4.284,4.284,9.18,8.567,13.464,12.852c11.016,11.017,22.032,19.584,33.048,26.316
		c12.24,7.344,25.092,12.24,37.943,14.688c13.465,2.448,28.152,1.837,42.841-2.447c25.703-6.732,52.02-22.645,72.827-44.064
		c9.181-9.792,17.137-20.196,22.645-31.824c6.731-13.464,11.628-28.764,15.3-41.616c4.284-14.688,6.732-26.928,7.344-38.556
		c2.448,16.524,2.448,31.212-0.611,45.288c0,0.612-0.612,1.836-0.612,2.448l0,0c-3.061,14.688-9.792,28.764-15.912,40.392
		c-6.731,12.24-13.464,23.868-21.42,33.66c-17.136,22.645-39.168,38.557-63.036,45.9c-16.523,4.896-34.884,7.956-54.468,7.956
		c-13.464,0-27.54-1.225-41.616-3.672c-15.3-2.448-31.212-6.732-47.124-12.24c-15.3-5.508-26.316-11.017-35.496-17.748
		c-17.748-12.853-28.764-32.437-31.212-55.08C168.3,415.584,169.524,405.18,170.136,394.164z M526.932,430.271
		c-17.748,11.629-44.063,21.421-69.155,25.093c9.18-13.464,17.136-28.765,24.479-45.9c0-0.612,0.612-1.224,0.612-1.224
		c6.12-7.956,14.076-14.076,22.032-20.196c1.836-1.224,3.672-3.06,5.508-4.284c9.792-7.956,20.195-17.136,28.151-28.764
		c7.345-10.404,12.24-22.644,16.524-34.272c1.224-2.448,1.836-4.896,3.06-7.344c6.12-15.3,12.24-29.988,16.524-45.9
		c1.836-7.956,3.672-16.524,4.284-24.48c0.611-5.508,0.611-11.628,0-17.748c0,0.612,0.611,1.224,0.611,1.836
		c11.017,23.256,17.137,49.572,17.748,74.664c0.612,25.092-5.508,50.184-17.748,72.216C567.936,396,548.964,415.584,526.932,430.271
		z"/>
	<path d="M397.188,251.568c7.345,6.12,15.301,12.852,23.868,21.42c0.612,0.612,1.836,1.224,3.061,1.224l0,0
		c1.836,0,3.06-1.224,3.672-2.448c0.612-1.836,0-3.06-0.612-4.284c-8.567-8.568-16.523-15.3-24.479-21.42
		c-9.181-7.344-17.748-14.688-27.54-25.092c-0.612-0.612-1.836-1.224-3.061-1.224c-1.836,0-3.06,1.224-3.672,2.448
		c-0.611,1.224-0.611,3.06,0.612,4.284C378.828,236.88,388.008,244.224,397.188,251.568z"/>
	<path d="M470.016,261.36c1.836,0,3.061-0.612,3.672-2.448c1.837-3.672,4.284-7.956,6.12-11.628
		c4.284-7.956,9.181-16.524,12.853-25.092c5.508-12.24,11.016-25.704,9.792-39.78c0-2.448-2.448-4.284-4.896-4.284
		c-1.224,0-2.447,0.612-3.672,1.224c-0.612,0.612-1.224,1.836-1.224,3.672c1.224,12.24-3.672,24.48-9.18,36.72
		c-3.673,7.956-7.956,15.912-12.24,23.256c-1.836,3.672-4.284,7.956-6.12,11.628c-0.612,1.224-0.612,3.06,0,4.284
		C466.344,260.748,468.18,261.36,470.016,261.36z"/>
	<path d="M476.748,277.884c0.612,1.836,2.448,3.06,4.284,3.06l0,0c1.224,0,1.836-0.612,2.448-0.612
		c17.747-12.852,40.392-30.6,59.976-52.02c1.224-1.224,1.836-3.06,0.612-4.896c-0.612-1.836-2.448-3.06-4.284-3.06
		c-1.224,0-2.448,0.612-3.061,1.224c-19.584,20.808-41.615,37.944-58.752,50.796C476.748,273.6,475.524,276.048,476.748,277.884z"/>
	<path d="M535.5,284.616C535.5,284.616,534.888,284.616,535.5,284.616c-3.672,0.612-7.344,0.612-11.016,1.224
		c-12.853,1.224-26.316,2.448-39.168,4.284c-2.448,0.612-4.284,2.448-4.284,5.508c0,2.448,1.836,4.284,4.284,4.284l0,0h0.611
		c12.853-1.836,26.316-3.06,39.168-4.284c3.672-0.612,6.732-0.612,10.404-1.224c2.448,0,4.284-2.448,4.284-4.896
		C539.784,286.452,537.948,284.616,535.5,284.616z"/>
	<path d="M168.912,295.02c-2.448,0-4.896,1.836-4.896,4.896v1.836c0,2.448,1.836,4.896,4.896,4.896s4.896-1.836,4.896-4.896v-1.836
		C173.808,297.468,171.36,295.02,168.912,295.02z"/>
	<path d="M121.176,275.436c-1.224,0-2.448,0.612-3.672,1.836c-0.612,0.612-1.224,1.836-1.224,3.06c0,2.448,1.836,4.896,4.284,4.896
		c1.224,0,2.448-0.612,3.672-1.836c0.612-0.612,1.224-1.836,1.224-3.06C125.46,277.272,123.624,275.436,121.176,275.436z"/>
	<path d="M89.352,265.032l-1.836,1.836c-1.836,1.836-1.836,4.896,0,6.732c0.612,0.612,1.836,1.224,3.06,1.224
		c1.224,0,2.448-0.612,3.06-1.224l1.836-1.836c0.612-0.612,1.224-1.836,1.224-3.06c0-1.224-0.612-2.448-1.224-3.06
		C94.248,263.196,91.188,263.196,89.352,265.032z"/>
	<path d="M121.176,235.656c-1.224,0-2.448,0.612-3.672,1.836c-0.612,0.612-1.224,1.836-1.224,3.06c0,2.448,1.836,4.896,4.284,4.896
		c1.224,0,2.448-0.612,3.672-1.836c0.612-0.612,1.224-1.836,1.224-3.06C125.46,237.492,123.624,235.656,121.176,235.656z"/>
	<path d="M116.892,265.032C116.892,265.032,117.504,265.032,116.892,265.032c0.612,0,0.612,0,1.224,0l0,0
		c1.224,0,2.448-0.612,3.06-1.836c0.612-0.612,1.224-1.836,1.224-3.06c0-2.448-1.836-4.284-4.284-4.896
		c-3.06-0.612-6.12,0.612-8.568,3.06c-1.224,1.224-1.836,3.06-1.224,4.896c0.612,1.836,2.448,3.06,4.284,3.06
		c1.224,0,2.448-0.612,3.06-1.224C116.28,265.032,116.28,265.032,116.892,265.032z"/>
	<path d="M171.972,266.868h-0.612c-1.224,0-2.448,0.612-3.672,1.836c-0.612,0.612-1.224,1.836-1.224,3.06
		c0,2.448,1.836,4.896,4.284,4.896h1.224c1.224,0,2.448-0.612,3.672-1.836c0.612-0.612,1.224-1.836,1.224-3.06
		C176.868,269.316,175.032,266.868,171.972,266.868z"/>
	<path d="M145.656,244.224c-1.224,0-2.448,0.612-3.672,1.836c-0.612,0.612-1.224,1.836-1.224,3.06c0,2.448,1.836,4.896,4.284,4.896
		c1.224,0,2.448-0.612,3.672-1.836c0.612-0.612,1.224-1.836,1.224-3.06C150.552,246.06,148.104,244.224,145.656,244.224z"/>
	<path d="M99.756,230.148c-2.448,0-4.284,1.224-4.896,1.836c-1.224,0.612-1.224,1.836-1.836,3.06c0,1.224,0.612,2.448,1.224,3.672
		c1.224,1.224,3.06,1.836,4.896,1.224c0.612,0,1.224,0.612,1.836,0.612c1.224,0,2.448-0.612,3.06-1.224
		c1.836-1.836,1.836-4.896,0-6.732C103.428,230.76,101.592,230.148,99.756,230.148z"/>
	<path d="M74.664,241.776v-3.06c0-2.448-1.836-4.896-4.896-4.896c-2.448,0-4.896,1.836-4.896,4.896v3.06
		c0,2.448,1.836,4.896,4.896,4.896C72.216,246.672,74.664,244.836,74.664,241.776z"/>
	<path d="M121.176,215.46c0.612-0.612,1.224-1.836,1.224-3.06c0-2.448-1.836-4.896-4.284-4.896c-1.224,0-2.448,0.612-3.672,1.836
		c-0.612,0.612-1.224,1.836-1.224,3.06c0,2.448,1.836,4.896,4.284,4.896C119.34,217.296,120.564,216.684,121.176,215.46z"/>
	<path d="M99.756,203.832c2.448,0,4.896-1.836,4.896-4.896V197.1c0-2.448-1.836-4.896-4.896-4.896s-4.896,1.836-4.896,4.896v1.836
		C94.86,201.996,96.696,203.832,99.756,203.832z"/>
	<path d="M150.552,156.708h-1.836c-2.448,0-4.896,1.836-4.896,4.896c0,2.448,1.836,4.896,4.896,4.896h1.836
		c2.448,0,4.896-1.836,4.896-4.896S153,156.708,150.552,156.708z"/>
	<path d="M117.504,177.516c1.224,0,2.448-0.612,3.672-1.836l0,0c2.448,0,4.284-2.448,4.284-4.896c0-2.448-1.836-4.896-4.896-4.896
		l0,0c-2.448,0-4.896,1.224-6.732,3.06c-1.836,1.836-1.224,4.896,0,6.12C115.056,176.904,116.28,177.516,117.504,177.516z"/>
	<path d="M164.016,154.26L164.016,154.26c1.224,0,2.448-0.612,3.06-1.224c0.612-0.612,1.224-0.612,2.448-0.612
		c2.448,0.612,5.508-1.224,5.508-4.284c0-2.448-1.224-4.284-3.672-4.896c-4.284-0.612-7.956,0-11.016,3.06
		c-1.224,1.224-1.836,3.061-1.224,4.896C160.344,153.036,162.18,154.26,164.016,154.26z"/>
	<path d="M194.616,269.316c-0.612,1.224,0,3.06,0.612,3.672c0.612,1.224,2.448,1.836,3.672,1.836l0,0
		c1.836,0,3.672-1.224,4.284-3.672c0-0.612,0.612-1.224,2.448-1.224c2.448,0,4.284-1.836,4.284-4.896
		c0-2.448-1.836-4.284-4.284-4.284l0,0C200.124,261.36,195.84,264.42,194.616,269.316z"/>
	<path d="M226.44,261.36c1.224,0,2.448-0.612,3.672-1.836c0.612-0.612,1.224-1.836,1.224-3.06c0-2.448-1.836-4.896-4.284-4.896
		c-1.224,0-2.448,0.612-3.672,1.836c-0.612,0.612-1.224,1.836-1.224,3.06C222.156,259.524,223.992,261.36,226.44,261.36z"/>
	<path d="M197.064,233.208c2.448,0,4.896-1.836,4.896-4.896v-3.06c0-2.448-1.836-4.896-4.896-4.896s-4.896,1.836-4.896,4.896v3.06
		C192.168,231.372,194.616,233.208,197.064,233.208z"/>
	<path d="M227.664,219.744l3.06,1.836c0.612,0.612,1.224,0.612,2.448,0.612c1.836,0,3.06-0.612,4.284-2.448
		c0.612-1.224,0.612-2.448,0.612-3.672c-0.612-1.224-1.224-2.448-2.448-2.448l-3.06-1.836c-0.612-0.612-1.224-0.612-2.448-0.612
		c-1.836,0-3.06,0.612-4.284,2.448c-0.612,1.224-0.612,2.448-0.612,3.672C225.828,218.52,226.44,219.132,227.664,219.744z"/>
	<path d="M254.592,265.032h3.06c2.448,0,4.896-1.836,4.896-4.896c0-3.06-1.836-4.896-4.896-4.896h-3.06
		c-2.448,0-4.896,1.836-4.896,4.896C249.696,263.196,252.144,265.032,254.592,265.032z"/>
	<path d="M171.36,235.656c1.224,0,2.448-0.612,3.672-1.836c0.612-0.612,1.224-1.836,1.224-3.06c0-2.448-1.836-4.896-4.284-4.896
		c-1.224,0-2.448,0.612-3.672,1.836c-0.612,0.612-1.224,1.836-1.224,3.06C167.076,233.82,168.912,235.656,171.36,235.656z"/>
	<path d="M289.476,200.772c2.448,0,4.896-1.836,4.896-4.896v-1.836c0-2.448-1.836-4.896-4.896-4.896
		c-2.448,0-4.896,1.836-4.896,4.896v1.836C284.58,198.324,287.028,200.772,289.476,200.772z"/>
	<path d="M236.844,189.144v1.836c0,2.448,1.836,4.896,4.896,4.896c3.06,0,4.896-1.836,4.896-4.896v-1.836
		c0-2.448-1.836-4.896-4.896-4.896C238.68,184.248,236.844,186.696,236.844,189.144z"/>
	<path d="M235.008,167.724c1.224,0,2.448-0.612,3.672-1.836c0.612-0.612,1.224-1.836,1.224-3.06c0-2.448-1.836-4.896-4.284-4.896
		c-1.224,0-2.448,0.612-3.672,1.836c-0.612,0.612-1.224,1.836-1.224,3.06C230.112,165.276,231.948,167.724,235.008,167.724z"/>
	<path d="M197.064,154.26c1.224,0,2.448-0.612,3.672-1.836c0.612-0.612,1.224-1.836,1.224-3.06c0-2.448-1.836-4.896-4.284-4.896
		c-1.224,0-2.448,0.612-3.672,1.836c-0.612,0.612-1.224,1.836-1.224,3.06C192.168,152.424,194.004,154.26,197.064,154.26z"/>
	<path d="M173.196,187.308c-1.836,1.836-1.836,4.896,0,6.732c0.612,0.612,1.836,1.224,3.06,1.224c1.224,0,2.448-0.612,3.06-1.224
		l1.836-1.836c0.612-0.612,1.224-1.836,1.224-3.06s-0.612-2.448-1.224-3.06c-1.836-1.836-4.896-1.836-6.732,0L173.196,187.308z"/>
	<path d="M55.08,313.38c-1.224,0-2.448,0.612-3.672,1.836c-0.612,0.612-1.224,1.836-1.224,3.06c0,2.448,1.836,4.896,4.284,4.896
		c1.224,0,2.448-0.612,3.672-1.836c0.612-0.612,1.224-1.836,1.224-3.06C59.364,315.216,57.528,313.38,55.08,313.38z"/>
	<path d="M88.74,311.544c-1.224,0-2.448,0.612-3.672,1.836c-0.612,0.612-1.224,1.836-1.224,3.06c0,2.448,1.836,4.896,4.284,4.896
		c1.224,0,2.448-0.612,3.672-1.836c0.612-0.612,1.224-1.836,1.224-3.06C93.636,313.38,91.188,311.544,88.74,311.544z"/>
	<path d="M71.604,304.812c-1.224,0-2.448,0.612-3.672,1.836c0,0.612-0.612,1.836-0.612,3.06c0,2.448,1.836,4.896,4.284,4.896
		c1.224,0,2.448-0.612,3.672-1.836c0.612-0.612,1.224-1.836,1.224-3.06C76.5,306.648,74.664,304.812,71.604,304.812z"/>
	<path d="M59.976,263.808c-2.448,0-4.896,1.836-4.896,4.896v1.836c0,2.448,1.836,4.896,4.896,4.896s4.896-1.836,4.896-4.896v-1.836
		C64.872,265.644,62.424,263.808,59.976,263.808z"/>
	<path d="M122.4,304.812h-3.06c-2.448,0-4.896,1.836-4.896,4.896s1.836,4.896,4.896,4.896h3.06c2.448,0,4.896-1.836,4.896-4.896
		S125.46,304.812,122.4,304.812z"/>
	<path d="M146.268,188.532c-3.06,0.612-6.12,3.06-6.732,6.732c-0.612,2.448,0.612,4.896,3.06,5.508c0.612,0,0.612,0,1.224,0l0,0
		c1.836,0,4.284-1.224,4.284-3.672c1.224,0,1.836-1.224,2.448-1.836c0.612-1.224,1.224-2.448,0.612-3.672
		C151.164,189.756,148.716,188.532,146.268,188.532z"/>
	<path d="M510.408,419.256c-2.448,0-4.896,1.836-4.896,4.896v1.836c0,2.448,1.836,4.896,4.896,4.896
		c2.448,0,4.896-1.836,4.896-4.896v-2.448C515.304,421.092,512.856,419.256,510.408,419.256z"/>
	<path d="M574.668,356.22c-2.448,0-4.896,1.836-4.896,4.896v1.224c0,2.448,1.837,4.896,4.896,4.896c2.448,0,4.896-1.836,4.896-4.896
		v-1.836C578.952,358.056,577.116,356.22,574.668,356.22z"/>
	<path d="M542.232,373.968c-1.225,0-2.448,0.612-3.673,1.836c-0.611,0.612-1.224,1.836-1.224,3.06c0,2.448,1.836,4.896,4.284,4.896
		c1.224,0,2.448-0.612,3.672-1.836c0.612-0.612,1.224-1.836,1.224-3.06C546.516,375.804,544.68,373.968,542.232,373.968z"/>
	<path d="M576.504,332.352c1.224,0,2.448-0.612,3.672-1.836c0.612-0.612,1.225-1.836,1.225-3.06c0-2.448-1.837-4.896-4.284-4.896
		c-1.225,0-2.448,0.612-3.672,1.836c-0.612,0.612-1.225,1.836-1.225,3.06C572.22,330.516,574.056,332.352,576.504,332.352z"/>
	<path d="M511.632,393.552c-2.448,0-4.284,1.836-4.896,4.284l0,0c-1.225,0.612-1.225,1.836-1.836,3.061
		c0,1.224,0.611,2.447,1.224,3.672c0.612,0.611,1.836,1.224,3.06,1.224l0,0c1.225,0,2.448-0.612,3.061-1.224
		c1.836-1.836,3.06-4.284,3.06-6.732c0-1.224-0.611-2.448-1.224-3.06C513.468,394.164,512.856,393.552,511.632,393.552z"/>
	<path d="M578.34,306.036c2.448,0,4.896-1.836,4.896-4.896v-1.836c0-2.448-1.836-4.896-4.896-4.896
		c-2.448,0-4.896,1.836-4.896,4.896v1.836C574.056,304.2,575.892,306.036,578.34,306.036z"/>
</g>
</svg>
