
<svg viewBox="93.084 160.533 425.825 317.939">
<g>
	<path d="M517.336,367.242c-0.729-2.258-1.757-4.333-2.913-6.316c-4.498-111.231-96.121-200.393-208.435-200.393
		c-112.29,0-203.918,89.162-208.417,200.393c-1.145,1.983-2.167,4.039-2.907,6.31c-3.201,9.829-1.114,19.804,2.473,29.652v39.015
		v33.256c0,5.153,4.174,9.314,9.314,9.314h399.073c5.153,0,9.314-4.167,9.314-9.314v-33.256v-39.015
		C518.438,387.041,520.53,377.077,517.336,367.242z M489.869,321.973c1.671,6.469,3.048,13.048,4.027,19.761
		c-2.907-1.824-5.833-3.568-8.69-5.232c-2.068-1.212-4.162-2.424-6.2-3.685L489.869,321.973z M445.609,248.649
		c1.42-1.414,2.173-3.292,2.473-5.257c9.357,10.575,17.546,22.167,24.395,34.639c-3.66-3.06-9.052-2.98-12.479,0.441l-6.756,6.762
		c-2.877-11.083-6.995-21.475-15.851-28.372L445.609,248.649z M476.926,308.582l-12.553,12.54c-0.049-0.055-0.109-0.11-0.165-0.165
		c-2.632-3.623-4.412-8.807-5.918-14.437l8.293-8.287L476.926,308.582z M437.537,299.873c0.655,3.011,1.377,6.022,2.154,9.009
		c-22.638-18.911-49.315-33.14-78.532-41.169c10.563,3.292,22.394,2.161,33.856,1.071c12.398-1.181,24.101-2.295,30.63,2.442
		C432.292,276.079,434.851,287.639,437.537,299.873z M251.306,267.584c10.232-3.317,19.002-11.145,27.491-18.709
		c9.095-8.115,18.501-16.505,27.191-16.505c8.715,0,18.122,8.391,27.222,16.505c8.481,7.559,17.258,15.392,27.49,18.721
		c0.086,0.024,0.166,0.043,0.245,0.067c-17.51-4.792-35.937-7.35-54.958-7.35c-50.827,0-97.43,18.287-133.685,48.581
		c0.777-2.987,1.493-5.998,2.154-9.015c2.687-12.234,5.239-23.794,11.897-28.648c6.542-4.737,18.256-3.629,30.63-2.442
		C228.606,269.891,240.62,271.066,251.306,267.584z M219.396,242.07l10.343-10.349l13.207,13.201l-6.23,6.218
		c-2.681,0.11-5.465,0.061-8.378-0.123L219.396,242.07z M329.764,222.143c7.044-6.041,16.145-9.731,26.127-9.731
		c21.346,0,38.69,16.622,40.257,37.571c-0.967,0.085-1.939,0.171-2.913,0.269c-9.736,0.924-19.773,1.897-26.781-0.379
		c-6.499-2.117-13.47-8.323-20.845-14.902C340.67,230.589,335.425,225.968,329.764,222.143z M415.512,231.715l10.349,10.349
		l-7.527,7.534c-1.182-0.146-2.388-0.269-3.599-0.342c-0.374-4.866-1.243-9.578-2.688-14.076L415.512,231.715z M410.75,210.748
		c-0.631,0.379-1.291,0.673-1.83,1.212l-5.759,5.765c-10.808-14.438-27.896-23.941-47.277-23.941
		c-5.569,0-10.869,1.028-16.004,2.472l-16.218-16.218C355.64,183,385.34,193.881,410.75,210.748z M321.937,204.64
		c-3.874,2.717-7.209,6.016-10.245,9.596c-1.854-0.324-3.745-0.496-5.704-0.496c-2.099,0-4.137,0.227-6.132,0.6l15.888-15.887
		L321.937,204.64z M305.994,179.162c0.887,0,1.72,0.116,2.583,0.129l-52.46,52.448l-19.78-19.78c-3.635-3.642-9.535-3.642-13.17,0
		l-23.513,23.519c-3.635,3.635-3.635,9.529,0,13.164l0.514,0.526c-8.929,0.128-17.473,1.695-24.762,7.001
		c-3.464,2.521-6.169,5.587-8.421,8.99c-21.408,8.886-36.58,29.761-36.58,54.339c0,4.768,0.729,9.339,1.793,13.801
		c-1.787,1.077-3.593,2.154-5.404,3.201c-2.858,1.665-5.771,3.396-8.678,5.22C131.58,249.934,210.534,179.162,305.994,179.162z
		 M155.901,297.48c-1.726,7.791-3.642,15.465-6.732,21.003C149.383,310.687,151.868,303.576,155.901,297.48z M112.388,372.977
		c2.167-6.671,9.731-11.952,18.476-17.216c-6.548,10.086-12.368,20.71-17.136,31.892
		C111.953,382.107,111.06,377.034,112.388,372.977z M115.999,459.844c4.884-100.582,88.232-180.913,189.995-180.913
		c101.776,0,185.13,80.331,190.008,180.913H115.999z M498.284,387.652c-4.755-11.181-10.581-21.787-17.13-31.885
		c8.739,5.263,16.304,10.563,18.458,17.228C500.935,377.034,500.041,382.114,498.284,387.652z"/>
	<path d="M427.739,429.317c-3.63,3.647-3.623,9.547,0.012,13.17c1.83,1.812,4.198,2.724,6.573,2.724
		c2.405,0,4.779-0.918,6.598-2.748l4.7-4.712c3.635-3.636,3.623-9.529-0.013-13.152c-3.647-3.629-9.529-3.629-13.17,0.006
		L427.739,429.317z"/>
	<path d="M275.626,374.721l-4.7,4.719c-3.629,3.635-3.629,9.529,0.019,13.158c1.83,1.806,4.198,2.717,6.573,2.717
		c2.393,0,4.773-0.912,6.585-2.742l4.7-4.712c3.635-3.635,3.635-9.529-0.024-13.152C285.143,371.092,279.25,371.092,275.626,374.721
		z"/>
	<path d="M223.343,424.611l-4.694,4.712c-3.635,3.653-3.617,9.554,0.024,13.177c1.817,1.805,4.198,2.717,6.573,2.717
		c2.393,0,4.786-0.918,6.597-2.748l4.7-4.712c3.635-3.636,3.617-9.541-0.024-13.17C232.872,420.976,226.966,420.976,223.343,424.611
		z"/>
	<path d="M327.892,424.611l-4.694,4.712c-3.629,3.647-3.629,9.547,0.019,13.17c1.817,1.812,4.198,2.724,6.572,2.724
		c2.394,0,4.768-0.918,6.586-2.748l4.712-4.712c3.617-3.636,3.611-9.529-0.024-13.152S331.526,420.976,327.892,424.611z"/>
	<path d="M171.084,374.721l-4.7,4.719c-3.629,3.635-3.629,9.529,0.019,13.158c1.817,1.806,4.198,2.717,6.573,2.717
		c2.393,0,4.774-0.912,6.591-2.742l4.694-4.712c3.636-3.635,3.636-9.529-0.012-13.152
		C180.601,371.085,174.708,371.092,171.084,374.721z"/>
	<path d="M327.892,324.849l-4.694,4.713c-3.629,3.635-3.629,9.529,0.019,13.158c1.817,1.818,4.198,2.717,6.572,2.717
		c2.394,0,4.768-0.912,6.586-2.729l4.712-4.719c3.617-3.635,3.611-9.528-0.024-13.151S331.526,321.201,327.892,324.849z"/>
	<path d="M380.15,374.721l-4.688,4.719c-3.635,3.641-3.61,9.535,0.024,13.164c1.824,1.799,4.198,2.711,6.573,2.711
		c2.393,0,4.779-0.912,6.597-2.742l4.688-4.712c3.635-3.635,3.623-9.547-0.024-13.17
		C389.691,371.092,383.798,371.092,380.15,374.721z"/>
	<path d="M223.355,324.849l-4.694,4.713c-3.635,3.635-3.629,9.529,0.012,13.158c1.817,1.818,4.198,2.717,6.573,2.717
		c2.393,0,4.773-0.912,6.597-2.729l4.7-4.719c3.635-3.635,3.623-9.528-0.024-13.151S226.979,321.201,223.355,324.849z"/>
</g>
</svg>
