<svg viewBox="36.787 187.082 534.025 263.986">
<path d="M114.665,386.502c-17.803,0-32.283,14.479-32.283,32.283c0,17.797,14.486,32.282,32.283,32.282
	c17.797,0,32.283-14.485,32.283-32.282C146.954,400.981,132.467,386.502,114.665,386.502z M114.665,436.894
	c-10,0-18.103-8.108-18.103-18.103c0-10,8.103-18.104,18.103-18.104c10,0,18.103,8.104,18.103,18.104
	C132.767,428.778,124.665,436.894,114.665,436.894z"/>
<circle cx="114.665" cy="418.785" r="5.098"/>
<path d="M339.831,187.082c-8.929,0-16.169,4.21-16.169,9.407h32.326C355.994,191.292,348.754,187.082,339.831,187.082z"/>
<path d="M416.527,187.082c-8.923,0-16.163,4.21-16.163,9.407h32.319C432.684,191.292,425.456,187.082,416.527,187.082z"/>
<path d="M430.126,386.502c-17.804,0-32.283,14.479-32.283,32.283c0,17.797,14.479,32.282,32.283,32.282
	c17.797,0,32.283-14.485,32.283-32.282C462.415,400.981,447.923,386.502,430.126,386.502z M430.126,436.894
	c-10.007,0-18.109-8.108-18.109-18.103c0-10,8.103-18.104,18.109-18.104c9.994,0,18.103,8.104,18.103,18.104
	C448.229,428.778,440.12,436.894,430.126,436.894z"/>
<circle cx="430.126" cy="418.785" r="5.098"/>
<path d="M112.865,211.439h453.051c-0.416-7.356-5.93-11.726-14.938-11.726h-422.39c-10.857,0-15.643,8.666-15.839,9.033
	c-0.367,0.68-0.416,1.494-0.134,2.209C112.675,211.127,112.761,211.286,112.865,211.439z"/>
<path d="M149.781,405.878c0,0.135-0.018,0.275-0.037,0.403l12.105,18.366c0.49,0.741,1.322,1.188,2.209,1.188h69.034V242.027
	h-83.312V405.878z M161.5,251.06h59.799c1.554,0,2.815,1.261,2.815,2.815l0.019,43.25h-65.447v-43.25
	C158.686,252.321,159.946,251.06,161.5,251.06z M158.686,312.554c0-1.462,1.181-2.644,2.644-2.644c1.463,0,2.65,1.181,2.65,2.644
	v11.457c0,1.463-1.188,2.65-2.65,2.65c-1.457,0-2.644-1.181-2.644-2.65V312.554z"/>
<path d="M568.303,405.425h-2.35v-12.173c1.022-0.318,1.763-1.254,1.763-2.38v-2.932c0-1.126-0.74-2.056-1.763-2.381v-40.392H238.374
	v80.673h149.23c1.462,0,2.649-1.181,2.649-2.644v-4.412c0-22.712,17.883-41.188,39.878-41.188c21.989,0,39.878,18.483,39.878,41.249
	l0.086,4.357c0.024,1.438,1.199,2.602,2.644,2.602h87.938v1.512c0,1.383,1.126,2.49,2.497,2.49h5.141c1.39,0,2.497-1.113,2.497-2.49
	v-19.395C570.807,406.545,569.692,405.425,568.303,405.425z M532.899,396.318h-56.861c-0.729,0-1.328-0.6-1.328-1.328
	c0-0.729,0.6-1.322,1.328-1.322h56.861c0.728,0,1.321,0.593,1.321,1.322C534.221,395.718,533.627,396.318,532.899,396.318z
	 M532.899,386.618h-56.861c-0.729,0-1.328-0.594-1.328-1.322c0-0.728,0.6-1.328,1.328-1.328h56.861c0.728,0,1.321,0.6,1.321,1.328
	C534.221,386.024,533.627,386.618,532.899,386.618z M532.899,376.918h-56.861c-0.729,0-1.328-0.594-1.328-1.322
	c0-0.734,0.6-1.322,1.328-1.322h56.861c0.728,0,1.321,0.587,1.321,1.322C534.221,376.324,533.627,376.918,532.899,376.918z"/>
<g>
	<circle cx="346.845" cy="270.938" r="11.885"/>
	<rect x="337.965" y="287.719" width="17.772" height="14.737"/>
	<path d="M358.577,305.29v23.898h6.371c0,0,5.373-7.179,6.652-8.911c1.285-1.732,1.72-3.874,1.658-5.257
		c-0.062-1.383-1.371-15.942-1.371-15.942c0-6.273-5.079-11.359-11.353-11.359h-1.952v17.571H358.577z"/>
	<path d="M328.767,329.188h6.364v-8.586v-32.889h-1.946c-6.272,0-11.353,5.085-11.353,11.358c0,0-1.297,14.56-1.364,15.943
		c-0.073,1.389,0.373,3.531,1.652,5.257C323.393,322.009,328.767,329.188,328.767,329.188z"/>
	<path d="M440.523,296.691c-0.043-0.055-0.104-0.08-0.146-0.129c-2.075-2.283-5.043-3.739-8.372-3.739h-0.398
		c-6.272,0-10.109,5.178-11.353,11.353l-6.731,27.62H299.5v8.091h165.124V328.27L440.523,296.691z M440.714,331.795
		c0.636-5.416,0.251-11.708,0.251-11.708l11.836,11.708H440.714z"/>
	<circle cx="442.831" cy="279.965" r="11.885"/>
</g>
<path d="M567.722,232.039v-2.932c0-1.126-0.74-2.062-1.763-2.375v-12.644H116.776l-25.527,99.726
	c-0.795,0.392-1.995,0.985-3.47,1.714v-4.296c0-0.734-0.594-1.322-1.322-1.322c-0.728,0-1.322,0.593-1.322,1.322v5.612
	c-9.266,4.59-24.651,12.209-28.66,14.217c-8.048,4.027-9.083,10.6-9.083,15.881v2.791c0.098-0.024,0.196-0.037,0.294-0.037h4.149
	c0.728,0,1.322,0.593,1.322,1.328c0,0.729-0.594,1.322-1.322,1.322h-4.149c-0.104,0-0.202-0.019-0.294-0.037v3.292
	c0.098-0.019,0.196-0.037,0.294-0.037h4.149c0.728,0,1.322,0.6,1.322,1.328c0,0.729-0.594,1.322-1.322,1.322h-4.149
	c-0.104,0-0.202-0.018-0.294-0.037v3.299c0.098-0.024,0.196-0.043,0.294-0.043h4.149c0.728,0,1.322,0.6,1.322,1.328
	c0,0.729-0.594,1.328-1.322,1.328h-4.149c-0.104,0-0.202-0.019-0.294-0.043v3.299c0.098-0.019,0.196-0.037,0.294-0.037h4.149
	c0.728,0,1.322,0.593,1.322,1.322c0,0.728-0.594,1.328-1.322,1.328h-4.149c-0.104,0-0.202-0.019-0.294-0.037v3.292
	c0.098-0.019,0.196-0.037,0.294-0.037h4.149c0.728,0,1.322,0.593,1.322,1.322c0,0.734-0.594,1.328-1.322,1.328h-4.149
	c-0.104,0-0.202-0.012-0.294-0.037v3.299c0.098-0.024,0.196-0.037,0.294-0.037h4.149c0.728,0,1.322,0.594,1.322,1.322
	c0,0.729-0.594,1.322-1.322,1.322h-4.149c-0.104,0-0.202-0.012-0.294-0.037v3.299c0.098-0.024,0.196-0.037,0.294-0.037h4.149
	c0.728,0,1.322,0.594,1.322,1.322c0,0.734-0.594,1.322-1.322,1.322h-4.149c-0.104,0-0.202-0.012-0.294-0.037v4.051
	c-0.238-0.073-0.489-0.128-0.759-0.128h-7.344c-1.383,0-2.503,1.12-2.503,2.497v19.394c0,1.377,1.12,2.497,2.503,2.497h7.344
	c1.383,0,2.497-1.126,2.497-2.497v-1.401h26.573c0.973,0,1.866-0.526,2.325-1.389l3.678-6.849c0.098-0.129,0.196-0.281,0.27-0.435
	c0.349-0.734,0.722-1.438,1.12-2.148l0.104-0.184c6.377-11.211,18.458-18.329,31.463-18.329c11.946,0,23.078,5.888,29.829,15.716
	V239.383c0-1.456,1.188-2.644,2.644-2.644h88.599c1.457,0,2.644,1.181,2.644,2.644v100.503h56.029v-94.848h175.485v94.848h96.06
	v-26.053c1.022-0.318,1.763-1.255,1.763-2.375v-2.932c0-1.126-0.74-2.062-1.763-2.381V234.42
	C566.981,234.102,567.722,233.165,567.722,232.039z M63.421,386.465c-2.356,0-4.259-4.675-4.259-10.435
	c0-5.759,1.909-10.435,4.259-10.435s4.26,4.676,4.26,10.435C67.681,381.79,65.778,386.465,63.421,386.465z M68.269,358.558
	c0,0.655-0.532,1.193-1.2,1.193h-6.708c-0.661,0-1.199-0.538-1.199-1.193v-2.687c0-0.655,0.539-1.193,1.199-1.193h6.714
	c0.661,0,1.2,0.539,1.2,1.193v2.687H68.269z M137.137,300.222c0,3.011-2.448,5.465-5.465,5.465h-22.564
	c-3.011,0-5.465-2.454-5.465-5.465c0-0.655,0.116-1.292,0.337-1.897l15.691-64.272c1.016-3.954,4.547-6.695,8.605-6.695
	c4.896,0,8.874,3.978,8.874,8.874L137.137,300.222z M469.894,235.35H294.402l-22.099-12.24H493.26L469.894,235.35z"/>
</svg>
